<svg width="56" height="56" viewBox="0 0 56 56" fill="none" xmlns="http://www.w3.org/2000/svg">
<path d="M12.9346 13.6411H43.0654" stroke="#B19FFB" stroke-width="2" stroke-miterlimit="10" stroke-linecap="round" stroke-linejoin="round"/>
<path d="M33.1031 28.7179C32.8601 26.564 30.9162 25.3675 28.4862 25.3675C26.2993 25.3675 23.6264 26.3247 23.8694 29.1965C24.1124 33.9828 33.5891 31.1111 33.1031 36.6153C32.8601 39.2478 29.7012 39.7264 28.7292 39.7264C27.7573 39.7264 23.8694 39.4871 22.8975 35.4187" stroke="#B19FFB" stroke-width="2" stroke-miterlimit="10" stroke-linecap="round" stroke-linejoin="round"/>
<path d="M28.4858 21.5385V43.7949" stroke="#B19FFB" stroke-width="2" stroke-miterlimit="10" stroke-linecap="round" stroke-linejoin="round"/>
<path d="M52.7849 6.46155V6.22223V3.58976L51.084 2.63249L49.1401 1.67523C48.4111 1.19659 47.1962 1.19659 46.4672 1.67523L44.2803 2.87181C43.3083 3.35044 42.3363 3.35044 41.6074 2.87181L39.4205 1.67523C38.4485 1.19659 37.7195 1.19659 36.7476 1.67523L34.5606 2.87181C33.8317 3.35044 32.6167 3.35044 31.8877 2.87181L29.7008 1.67523C28.9719 1.19659 27.7569 1.19659 27.0279 1.67523L24.355 2.87181C23.6261 3.35044 22.4111 3.35044 21.6821 2.87181L19.4952 1.43591C18.5233 0.957277 17.5513 0.957277 16.8223 1.43591L14.3924 2.63249C13.6634 3.35044 12.6915 3.35044 11.7195 2.87181L9.28961 1.67523C8.80363 1.19659 7.58868 1.19659 6.8597 1.43591L5.15877 2.39317L3.21484 3.58976V7.89745V52.4103L6.8597 54.3248C7.58868 54.8034 8.80363 54.8034 9.5326 54.3248L11.7195 53.1282C12.6915 52.6496 13.6634 52.6496 14.3924 53.1282L16.5793 54.3248C17.5513 54.8034 18.2803 54.8034 19.2522 54.3248L21.4391 53.1282C22.1681 52.6496 23.3831 52.6496 24.112 53.1282L26.299 54.3248C27.0279 54.8034 28.2429 54.8034 28.9719 54.3248L31.1588 53.1282C31.8877 52.6496 33.1027 52.6496 33.8317 53.1282L36.0186 54.3248C36.9905 54.8034 37.9625 54.8034 38.6915 54.3248L41.1214 53.1282C41.8504 52.6496 42.8223 52.6496 43.7943 53.1282L46.2242 54.3248C46.9532 54.8034 47.9251 54.8034 48.8971 54.3248L52.5419 52.4103L52.7849 6.46155Z" stroke="#B19FFB" stroke-width="2" stroke-miterlimit="10" stroke-linecap="round" stroke-linejoin="round"/>
</svg>
