<svg width="56" height="56" viewBox="0 0 56 56" fill="none" xmlns="http://www.w3.org/2000/svg">
<path d="M28 49.6667C39.9662 49.6667 49.6667 39.9662 49.6667 28C49.6667 16.0338 39.9662 6.33333 28 6.33333C16.0338 6.33333 6.33334 16.0338 6.33334 28C6.33334 32.2118 7.5351 36.1429 9.61444 39.4691L6.97163 49.1274L16.7416 46.5156C20.0226 48.5149 23.8768 49.6667 28 49.6667Z" stroke="#ADA2F5" stroke-width="2" stroke-linecap="round"/>
<path d="M22.6024 17.1667H20.248C19.9515 17.1667 19.0969 17.6091 18.0505 19.3787C16.7425 21.5907 16.1146 25.1402 21.8699 31.4676C27.6251 37.795 33.0665 38.6695 35.3163 38.8238C37.566 38.9781 40.2344 37.2291 40.7053 35.6858C41.1761 34.1426 40.9669 33.4224 40.8622 33.1137C40.7576 32.8051 35.5255 30.4387 35.0547 30.4902C34.5838 30.5416 32.7003 33.5767 32.0201 33.5767C29.9797 33.6281 23.2302 28.5028 23.2302 25.9633C23.2302 25.4488 25.2184 23.957 25.2184 22.8767C25.2184 22.3623 23.1779 17.1667 22.6024 17.1667Z" stroke="#ADA2F5" stroke-width="2" stroke-linecap="round"/>
</svg>
